<svg preserveAspectRatio="xMidYMid meet" overflow="visible" style="display: block;" viewBox="0 0 224.074 128.576" fill="none" xmlns="http://www.w3.org/2000/svg">
<g id="Group 3">
<path id="Vector" d="M212.629 105.542C216.519 105.047 222.288 105.932 223.659 110.346C223.853 110.966 223.958 111.619 223.647 112.218C222.684 112.969 220.357 112.764 219.046 112.759L217.796 110.801C217.271 110.525 216.727 110.297 216.162 110.118C214.556 109.615 212.558 109.649 212.015 111.568C212.194 115.286 220.05 114.586 223.889 118.719C224.769 124.736 222.54 127.452 216.576 128.371C212.684 128.575 208.656 127.471 206.432 123.852C206.036 123.208 205.721 122.208 205.963 121.459C207.241 120.349 210.696 121.759 211.961 122.584C212.473 122.917 214.089 124 214.552 124.143C216.363 124.699 219.125 123.265 218.745 121.077C217.56 118.851 211.995 118.671 209.552 117.111C203.743 113.405 206.27 106.982 212.629 105.542Z" fill="var(--fill-0, black)"/>
<path id="Vector_2" d="M91.5526 105.517C98.0733 104.695 102.083 107.076 104.426 113.146C102.413 113.243 100.375 113.211 98.3581 113.201C96.2043 109.788 92.4912 108.971 89.7668 112.439C88.339 114.256 88.1813 116.781 88.4451 119.008C88.8098 122.085 91.6912 124.332 94.7663 123.974C96.5014 123.764 97.6502 122.067 98.6099 120.711C99.3107 120.312 102.993 120.656 104.018 120.72C102.037 128.047 93.919 130.613 87.8742 126.864C85.5631 125.452 83.9158 123.172 83.3009 120.535C81.7246 113.773 84.3771 107.154 91.5526 105.517Z" fill="var(--fill-0, black)"/>
<path id="Vector_3" d="M9.27753 105.832C11.2291 105.763 13.3431 105.834 15.3073 105.864C17.1099 111.381 19.1826 117.403 20.6451 122.998C22.4191 118.345 25.3487 110.584 26.3743 105.813L32.3052 105.932C31.7162 107.258 31.1093 108.918 30.5662 110.289C28.1706 116.153 26.2424 122.323 23.841 128.176C21.8435 128.136 19.6722 128.215 17.6623 128.25C17.3718 127.057 15.7646 123.016 15.2747 121.698C13.323 116.444 11.3754 111.019 9.27753 105.832Z" fill="var(--fill-0, black)"/>
<g id="Group 30">
<path id="Vector_4" d="M133.487 0C137.696 0.0316952 141.903 0.0351498 146.113 0.0101594C145.062 2.35114 143.519 7.78565 142.54 10.5702C138.958 20.6625 135.505 30.7998 132.182 40.9797C130.237 46.8131 128.251 52.6334 126.227 58.4403C124.951 62.1661 123.375 66.3341 122.583 70.1351C129.467 70.2578 136.353 70.3029 143.239 70.2704C147.728 70.2362 153.401 69.9459 157.761 70.3551C157.994 74.1878 157.87 78.1137 157.738 81.9485L153.497 81.9249L122.595 81.9078C116.957 81.9178 110.796 82.0545 105.194 81.8595C111.237 63.411 117.441 45.0148 123.8 26.6726C125.806 20.9902 127.861 15.3255 129.967 9.67944C130.782 7.51604 133.105 1.84787 133.487 0Z" fill="var(--fill-0, black)"/>
<path id="Vector_5" d="M85.5095 23.2639C89.9948 23.0286 95.6664 23.1164 100.203 23.1966C99.8777 42.879 100.36 62.6507 99.9594 82.2138L85.7518 82.0773C85.5335 66.6236 85.4725 51.1681 85.5693 35.713C85.5725 33.4377 85.1323 24.937 85.5095 23.2639Z" fill="var(--fill-0, black)"/>
<path id="Vector_6" d="M149.574 18.5596C155.535 20.8884 162.801 25.1107 168.6 28.0204C174.277 30.8693 180.396 33.792 185.752 37.1421L185.555 48.5461C183.171 49.5689 179.165 51.7843 176.724 53.0265L159.106 61.8705C156.143 63.2722 153.145 64.6853 150.037 65.7377C149.779 61.9526 149.836 57.9214 149.901 54.1285C156.167 50.8948 162.389 47.7275 168.781 44.7374C170.195 44.0755 171.584 43.3322 172.943 42.5594C171.58 42.0153 170.102 41.3182 168.817 40.6125C162.626 37.2088 155.763 34.498 149.623 31.1078C149.354 27.1457 149.513 22.5686 149.574 18.5596Z" fill="var(--fill-0, black)"/>
<path id="Vector_7" d="M74.3949 18.7673C74.6575 19.1934 74.5689 29.449 74.723 31.2295C69.7487 33.6409 64.6675 36.4768 59.6156 38.8316C57.0468 40.0291 54.4814 41.5324 51.7973 42.4711C59.3258 46.5395 67.19 49.8455 74.6504 53.8269L74.5897 66.3823C72.0592 64.8349 68.6506 63.3197 65.9106 62.036C57.395 58.1972 47.4371 52.0957 38.9763 48.6336C38.9218 44.7442 38.9397 40.8542 39.0302 36.9657C41.6021 35.2694 45.8038 33.1641 48.6417 31.649C57.1519 27.2082 65.7376 22.9137 74.3949 18.7673Z" fill="var(--fill-0, black)"/>
<path id="Vector_8" d="M91.1678 0.267623C95.3251 -0.645443 99.4335 1.99136 100.333 6.14993C101.233 10.3087 98.5821 14.4069 94.419 15.293C90.275 16.175 86.1983 13.5398 85.3023 9.40012C84.4066 5.26043 87.0295 1.17663 91.1678 0.267623Z" fill="var(--fill-0, black)"/>
</g>
<path id="Vector_9" d="M66.7932 97.8284C67.4117 97.8217 67.2454 97.7312 67.6416 98.0482C67.6983 99.9168 67.5505 101.887 67.6078 103.792C67.8531 111.963 67.768 120.049 67.6391 128.22L63.1532 128.233L62.5081 128.184C61.9392 127.217 62.1079 101.524 62.1852 98.1683C63.7807 97.9503 65.1924 97.8979 66.7932 97.8284Z" fill="var(--fill-0, black)"/>
<path id="Vector_10" d="M142.481 98.1661C144.3 98.0513 146.058 98.0742 147.877 98.0827C148.198 107.154 148.129 119.093 147.783 128.169C146.113 128.134 144.324 128.182 142.645 128.198L142.481 98.1661Z" fill="var(--fill-0, black)"/>
<path id="Vector_11" d="M4.8341 105.961C5.40522 105.905 5.56762 105.869 6.14403 106.023C6.62288 107.038 6.51272 125.649 6.35358 128.309L2.17909 128.237C1.65593 128.258 1.52991 128.24 1.01468 128.14C0.478314 127.431 0.628513 108.653 0.792127 106.052C2.13986 106.046 3.48738 106.016 4.8341 105.961Z" fill="var(--fill-0, black)"/>
<path id="Vector_12" d="M76.7155 105.983C77.3226 105.951 78.1415 105.833 78.6439 106.124C78.8407 107.756 78.7098 112.387 78.7083 114.218L78.7884 128.171L74.6212 128.128L73.3014 128.119C73.0727 121.556 73.156 112.691 73.3593 106.099L76.7155 105.983Z" fill="var(--fill-0, black)"/>
<path id="Vector_13" d="M2.67013 96.7304C7.20376 96.6248 8.70576 101.593 3.75792 103.262C0.00719512 103.145 -1.89012 98.7366 2.67013 96.7304Z" fill="var(--fill-0, black)"/>
<path id="Vector_14" d="M74.4625 96.7739C75.2379 96.7205 76.2552 96.6926 77.0149 96.8729C79.3724 97.4322 80.126 101.52 77.9009 102.557C76.1107 102.602 75.0172 102.608 73.2451 102.435C73.0983 101.058 72.642 98.4783 73.3136 97.2938C73.5495 96.8773 73.9471 96.8987 74.4625 96.7739Z" fill="var(--fill-0, black)"/>
<path id="Subtract" d="M184.273 98.2436C184.521 98.2343 185.037 98.2757 185.309 98.2885C186.162 99.5161 185.262 106.7 185.506 108.511L185.726 108.62C186.157 108.145 186.502 107.8 187.014 107.405C189.081 105.838 191.676 105.142 194.249 105.465C203.296 106.625 205.442 118.612 200.39 124.97C199.681 125.863 198.881 126.478 197.977 127.165C196.503 128.035 194.833 128.511 193.121 128.547C189.902 128.62 187.444 127.314 185.17 125.17C185.333 126.339 185.561 127.086 185.886 128.208C183.894 128.14 182.292 128.12 180.288 128.181C180.114 118.513 180.109 107.994 180.115 98.3286L184.273 98.2436ZM193.882 110.586C192.516 110.074 191.402 110.25 190.02 110.402C186.126 111.987 184.622 116.145 186.142 119.93C186.776 121.505 188.022 122.756 189.593 123.398C190.973 123.952 191.731 123.946 193.162 123.645C195.154 122.758 196.414 121.768 197.249 119.673C198.576 116.339 197.463 111.931 193.882 110.586Z" fill="var(--fill-0, black)"/>
<path id="Subtract_2" d="M160.651 105.526C165.256 105.225 166.198 105.734 169.395 108.987L168.901 105.948C170.966 105.805 172.683 105.824 174.742 105.85C174.786 113.432 174.852 120.635 174.726 128.239L169.344 128.178C169.604 127.287 169.917 126.686 169.612 125.92C168.22 126.698 166.124 128.021 164.602 128.307C154.141 130.273 148.607 118.219 153.735 110.066C155.349 107.498 157.734 106.131 160.651 105.526ZM162.163 110.203C154.671 112.226 156.466 125.056 164.702 123.838C172.411 120.581 170.164 109.705 162.163 110.203Z" fill="var(--fill-0, black)"/>
<path id="Subtract_3" d="M42.7949 105.509C46.877 105.091 48.6818 106.436 51.6279 108.82C51.494 107.822 51.4674 106.804 51.4219 105.797C53.3135 105.646 54.8672 105.704 56.752 105.758C56.7327 112.983 56.6233 121.058 56.8526 128.261C55.0311 128.222 52.7724 128.711 51.5332 127.914C51.1748 127.122 51.3661 126.929 51.5147 125.976C51.4354 125.8 51.4248 125.839 51.2442 125.702C50.0989 126.385 47.7017 127.917 46.4434 128.185C41.1788 129.303 35.8034 126.258 34.6524 120.854C33.1479 113.79 34.9776 107.392 42.6201 105.527L42.7949 105.509ZM44.5156 110.408C36.7932 112.183 38.098 124.725 46.5332 123.879C53.7105 121.629 53.3958 110.122 44.5156 110.408Z" fill="var(--fill-0, black)"/>
<path id="Subtract_4" d="M115.554 105.54C120.473 104.736 125.663 106.378 127.714 111.28C128.757 113.772 128.735 115.757 128.725 118.425C123.54 118.527 118.241 118.262 113.056 118.375C112.567 118.386 112.372 118.699 112.14 119.049C111.728 121.714 116.591 125.11 119.341 123.702C120.985 122.861 122.617 121.369 124.237 120.932C125.474 120.873 126.898 120.909 128.152 120.916C127.129 124.959 125.016 126.956 121.024 128.042C110.309 130.958 103.557 119.514 108.426 110.536C109.881 107.854 112.648 106.278 115.554 105.54ZM123.46 114.619C122.466 110.996 120.363 109.713 116.654 109.977C113.92 110.98 113.183 112.321 112.315 114.944C114.778 114.959 117.034 114.784 119.465 114.715L123.46 114.619Z" fill="var(--fill-0, black)"/>
</g>
</svg>
