<svg preserveAspectRatio="xMidYMid meet" overflow="visible" style="display: block;" viewBox="0 0 32 32" fill="none" xmlns="http://www.w3.org/2000/svg">
<g id="AppIconClean">
<rect width="32" height="32" rx="8" fill="var(--fill-0, #171819)"/>
<path id="Vector" d="M10.5692 6.08002C11.6365 6.08558 12.4948 7.03308 12.4798 8.18922C12.4648 9.3454 11.5823 10.2664 10.5153 10.2394C9.46207 10.2128 8.6254 9.2719 8.64019 8.13076C8.65502 6.98966 9.51577 6.07457 10.5692 6.08002Z" fill="var(--fill-0, #E7E6E6)"/>
<path id="Vector_2" d="M21.0127 6.09819C21.578 6.07515 22.1438 6.074 22.7092 6.09473C22.6074 6.41495 22.4953 6.9088 22.4043 7.24791C22.2344 7.86705 22.0571 8.48364 21.8724 9.09752L19.3931 17.3109C18.9218 18.9068 18.398 20.4831 17.9536 22.0888C17.894 22.3041 17.8455 22.5225 17.8083 22.7439C19.5917 22.8087 21.4645 22.7407 23.2546 22.7589C24.1246 22.7677 25.0176 22.7119 25.889 22.769C25.9432 23.7088 25.9163 24.9348 25.8838 25.876C25.1235 25.9233 24.36 25.9104 23.5984 25.9069C20.319 25.8845 17.0394 25.8888 13.76 25.92C13.8669 25.286 14.0369 24.821 14.2215 24.2141C14.4412 23.4888 14.6568 22.762 14.8684 22.0337C16.0401 18.0128 17.2421 14.0028 18.4744 10.0043L19.2827 7.35564C19.378 7.03614 19.576 6.42637 19.6296 6.11696C20.0907 6.11627 20.5517 6.11001 21.0127 6.09819Z" fill="var(--fill-0, #E0DFDF)"/>
<path id="Vector_3" d="M8.96 11.8982C9.85988 11.8454 11.2895 11.8094 12.16 11.8769C12.0929 13.0151 12.1214 13.9264 12.109 15.0518C12.0806 17.6218 12.1258 20.1898 12.103 22.761C12.0947 23.693 12.1359 24.6989 12.0972 25.6238C12.0979 25.7389 12.0993 25.7715 12.0776 25.8855C11.9984 25.9459 9.291 25.908 8.97148 25.9108C8.96882 25.6665 8.97114 25.4222 8.97842 25.1781L8.96 11.8982Z" fill="var(--fill-0, #E2E2E1)"/>
</g>
</svg>
