<svg preserveAspectRatio="xMidYMid meet" overflow="visible" style="display: block;" viewBox="0 0 57 36" fill="none" xmlns="http://www.w3.org/2000/svg">
<g id="Group 31">
<path id="Vector" d="M36.7073 0C38.3416 0.0138788 39.9751 0.0153915 41.6094 0.0044486C41.2014 1.02952 40.6025 3.4092 40.2221 4.62849C38.8316 9.04773 37.4909 13.4867 36.2007 17.9443C35.4455 20.4986 34.6745 23.0473 33.8885 25.59C33.3929 27.2215 32.7813 29.0465 32.4736 30.7109C35.1464 30.7647 37.82 30.7844 40.4936 30.7702C42.2368 30.7552 44.4393 30.6281 46.132 30.8073C46.2227 32.4856 46.1746 34.2047 46.1233 35.8838L44.4764 35.8735L32.4783 35.866C30.2892 35.8704 27.8973 35.9303 25.7222 35.8448C28.0686 27.7666 30.477 19.7112 32.9463 11.6795C33.7251 9.19123 34.523 6.71075 35.3405 4.23846C35.6569 3.29114 36.5589 0.809152 36.7073 0Z" fill="var(--fill-0, black)"/>
<path id="Vector_2" d="M18.0794 10.1869C19.8208 10.0838 22.0229 10.1223 23.7843 10.1574C23.658 18.776 23.8452 27.4337 23.6897 36L18.1734 35.9402C18.0887 29.1733 18.065 22.4056 18.1026 15.6381C18.1038 14.6418 17.9329 10.9195 18.0794 10.1869Z" fill="var(--fill-0, black)"/>
<path id="Vector_3" d="M42.9533 8.12692C45.2678 9.14665 48.089 10.9956 50.3404 12.2696C52.5445 13.5171 54.9206 14.7969 57 16.2639L56.9234 21.2575C55.9977 21.7054 54.4424 22.6755 53.4946 23.2194L46.6543 27.092C45.5038 27.7058 44.3398 28.3246 43.1332 28.7854C43.033 27.128 43.0551 25.3628 43.0803 23.702C45.5133 22.286 47.9288 20.8991 50.4106 19.5897C50.9599 19.2999 51.4989 18.9744 52.0268 18.636C51.4973 18.3978 50.9236 18.0925 50.4249 17.7835C48.0211 16.2931 45.3562 15.1061 42.9722 13.6216C42.868 11.8866 42.9296 9.88241 42.9533 8.12692Z" fill="var(--fill-0, black)"/>
<path id="Vector_4" d="M13.7638 8.21789C13.8657 8.40446 13.8313 12.8952 13.8912 13.6748C11.9598 14.7308 9.98697 15.9726 8.02548 17.0037C7.02809 17.5281 6.03204 18.1863 4.9899 18.5974C7.91295 20.3788 10.9664 21.8265 13.863 23.5699L13.8394 29.0677C12.8569 28.3901 11.5334 27.7266 10.4696 27.1645C7.16327 25.4836 3.29696 22.8118 0.0119363 21.2958C-0.00921267 19.5927 -0.00226709 17.8894 0.0328496 16.1866C1.03143 15.4439 2.66281 14.522 3.76469 13.8586C7.06889 11.914 10.4024 10.0335 13.7638 8.21789Z" fill="var(--fill-0, black)"/>
<path id="Vector_5" d="M20.2761 0.117188C21.8902 -0.282629 23.4854 0.87198 23.8348 2.69295C24.1842 4.51401 23.1548 6.30856 21.5384 6.69654C19.9295 7.08274 18.3466 5.92884 17.9988 4.11615C17.651 2.30345 18.6694 0.515224 20.2761 0.117188Z" fill="var(--fill-0, black)"/>
</g>
</svg>
